<?xml version="1.0" encoding="iso-8859-1"?>
<!-- Generator: Adobe Illustrator 16.0.0, SVG Export Plug-In . SVG Version: 6.00 Build 0)  -->
<!DOCTYPE svg PUBLIC "-//W3C//DTD SVG 1.1//EN" "http://www.w3.org/Graphics/SVG/1.1/DTD/svg11.dtd">
<svg version="1.1" id="Capa_1" xmlns="http://www.w3.org/2000/svg" xmlns:xlink="http://www.w3.org/1999/xlink" x="0px" y="0px"
	 width="185.208px" height="185.207px" viewBox="0 0 185.208 185.207" style="enable-background:new 0 0 185.208 185.207;"
	 xml:space="preserve">
<g>
	<path d="M185.092,107.562c-0.007-1.711-1.407-3.105-3.118-3.105h-0.006l-11.691,0.03l-0.03-11.679
		c-0.006-1.718-1.406-3.118-3.117-3.118h-0.007l-22.846,0.062c-0.828,0.012-1.62,0.341-2.205,0.919
		c-0.597,0.591-0.913,1.383-0.913,2.211l0.061,20.587l-28.746,0.067c0.639-1.157,1.37-2.266,1.924-3.471
		c4.335-9.365,6.175-19.79,5.328-30.139c-1.169-14.127-7.331-27.429-17.354-37.466c-2.216-2.219-4.612-4.183-7.094-6.004
		c-0.183-0.177-0.387-0.308-0.605-0.438C84.587,28.823,72.58,24.889,59.948,24.889c-16.015,0-31.079,6.242-42.414,17.564
		c-20.587,20.582-23.032,52.51-7.401,75.819c0,0.024,0,0.036,0,0.061c0.219,0.706,0.667,1.255,1.242,1.65
		c1.851,2.539,3.845,5.036,6.141,7.319c10.574,10.564,24.488,16.666,39.345,17.421c0.573,0.523,1.303,0.841,2.083,0.841l0,0
		l11.691-0.037l0.024,11.68c0.012,1.704,1.409,3.111,3.117,3.111h0.013l22.847-0.062c0.828,0,1.622-0.335,2.207-0.907
		c0.588-0.597,0.91-1.389,0.91-2.21l-0.061-20.588l41.613-0.122l0.061,20.594c0.006,1.711,1.4,3.105,3.118,3.105h0.006l22.84-0.066
		c0.835,0,1.626-0.329,2.205-0.907c0.597-0.585,0.913-1.376,0.913-2.211l-0.024-11.69l11.667-0.025c0.828,0,1.619-0.334,2.204-0.919
		c0.584-0.572,0.913-1.376,0.913-2.204L185.092,107.562z M108.728,107.458c-0.969,2.113-2.131,4.141-3.367,6.107l-5.745,0.03
		l-0.055-18.377c0.03-0.036,0.073-0.049,0.109-0.085c5.604-7.308,9.636-13.591,13.021-20.408c0.365,1.897,0.651,3.8,0.816,5.73
		C114.275,89.727,112.613,99.055,108.728,107.458z M6.372,88.338C19.05,83.862,31.07,76.285,41.214,66.146
		c11.024-11.021,18.103-22.134,22.298-34.849c9.286,0.612,18.109,3.529,25.797,8.562c-5.48,15.54-15.613,31.243-28.814,44.457
		c-13.667,13.667-29.897,23.97-45.937,29.316C9.661,105.899,6.948,97.18,6.372,88.338z M21.93,46.874
		c9.447-9.435,21.769-14.87,34.991-15.594c-3.958,10.966-10.388,20.733-20.134,30.47c-8.927,8.93-19.397,15.658-30.439,19.905
		C7.121,68.983,12.279,56.531,21.93,46.874z M18.343,118.936c16.344-5.814,32.717-16.367,46.561-30.195
		c13.542-13.552,23.687-29.021,29.618-44.972c1.172,0.992,2.338,2.01,3.428,3.111c5.335,5.344,9.433,11.746,12.1,18.7
		c-0.036,0.073-0.104,0.131-0.128,0.201c-3.587,8.54-7.794,15.667-14.16,24.11l-22.177,0.055c-0.837,0-1.629,0.329-2.208,0.914
		c-0.587,0.578-0.91,1.382-0.91,2.204l0.03,11.69l-11.667,0.037c-1.714,0-3.118,1.4-3.112,3.13l0.058,17.731
		c-5.77,3.35-11.667,6.15-17.61,8.367c-5.979-2.655-11.484-6.37-16.236-11.119C20.651,121.615,19.467,120.288,18.343,118.936z
		 M55.807,138.428c-2.962-0.226-5.855-0.682-8.705-1.389c2.929-1.315,5.818-2.765,8.705-4.329V138.428z M62.055,139.305
		l-0.088-28.291l8.555-0.023l0.094,28.296L62.055,139.305z M76.888,154.064L76.72,96.162l16.611-0.042l0.167,57.907L76.888,154.064z
		 M99.658,130.305l-0.023-10.498l41.616-0.104l0.024,10.492L99.658,130.305z M147.577,153.882l-0.171-57.896l16.611-0.049
		l0.171,57.901L147.577,153.882z M170.393,139.012l-0.098-28.29l8.567-0.024l0.079,28.297L170.393,139.012z"/>
</g>
<g>
</g>
<g>
</g>
<g>
</g>
<g>
</g>
<g>
</g>
<g>
</g>
<g>
</g>
<g>
</g>
<g>
</g>
<g>
</g>
<g>
</g>
<g>
</g>
<g>
</g>
<g>
</g>
<g>
</g>
</svg>
