<?xml version="1.0" encoding="iso-8859-1"?>
<!-- Generator: Adobe Illustrator 16.0.0, SVG Export Plug-In . SVG Version: 6.00 Build 0)  -->
<!DOCTYPE svg PUBLIC "-//W3C//DTD SVG 1.1//EN" "http://www.w3.org/Graphics/SVG/1.1/DTD/svg11.dtd">
<svg version="1.1" id="Capa_1" xmlns="http://www.w3.org/2000/svg" xmlns:xlink="http://www.w3.org/1999/xlink" x="0px" y="0px"
	 width="193.562px" height="193.562px" viewBox="0 0 193.562 193.562" style="enable-background:new 0 0 193.562 193.562;"
	 xml:space="preserve">
<g>
	<path d="M74.823,174.338H26.679V34.741h23.209v6.698c0,1.72,1.397,3.118,3.118,3.118h58.885c1.718,0,3.118-1.397,3.118-3.118
		v-6.698h23.218v38.31c0,1.72,1.4,3.118,3.117,3.118c1.711,0,3.118-1.397,3.118-3.118V31.624c0-1.721-1.407-3.118-3.118-3.118
		h-26.335v-8.567c0-1.72-1.4-3.117-3.118-3.117H99.122c0-0.049,0-0.104,0-0.155C99.122,7.474,91.638,0,82.45,0
		c-9.191,0-16.675,7.474-16.675,16.666c0,0.052,0,0.106,0,0.155H53c-1.72,0-3.118,1.397-3.118,3.117v8.567H23.556
		c-1.72,0-3.118,1.397-3.118,3.118V177.45c0,1.717,1.397,3.117,3.118,3.117h51.261c1.72,0,3.118-1.4,3.118-3.117
		C77.935,175.732,76.537,174.338,74.823,174.338z M56.117,23.062h13.22c0.959,0,1.869-0.441,2.463-1.203
		c0.591-0.761,0.798-1.75,0.56-2.679c-0.237-0.923-0.35-1.741-0.35-2.509c0-5.754,4.683-10.431,10.44-10.431
		c5.754,0,10.437,4.677,10.437,10.431c0,0.755-0.113,1.553-0.356,2.521c-0.229,0.928-0.018,1.921,0.569,2.673
		c0.585,0.755,1.495,1.196,2.457,1.196h13.211v15.266h-52.65V23.062L56.117,23.062z M122.729,69.961
		c0,1.721-1.406,3.118-3.117,3.118H45.3c-1.723,0-3.118-1.397-3.118-3.118c0-1.723,1.395-3.117,3.118-3.117h74.312
		C121.335,66.844,122.729,68.226,122.729,69.961z M119.612,100.094H45.3c-1.723,0-3.118-1.4-3.118-3.118
		c0-1.717,1.395-3.118,3.118-3.118h74.312c1.711,0,3.117,1.401,3.117,3.118C122.729,98.699,121.335,100.094,119.612,100.094z
		 M81.576,129.711H45.294c-1.724,0-3.118-1.4-3.118-3.117c0-1.729,1.394-3.118,3.118-3.118h36.282c1.72,0,3.117,1.389,3.117,3.118
		C84.693,128.316,83.296,129.711,81.576,129.711z M73.782,148.417c1.72,0,3.118,1.388,3.118,3.117c0,1.718-1.397,3.118-3.118,3.118
		H45.294c-1.724,0-3.118-1.4-3.118-3.118c0-1.729,1.394-3.117,3.118-3.117H73.782z M173.123,188.971
		c0,0-19.552-17.902-24.496-22.438l1.869-2.04c1.364-1.474,2.052-3.459,1.967-5.59c-0.122-2.631-1.413-5.285-3.556-7.246
		l-11.521-10.547c6.638-7.988,10.218-14.297,11.04-19.497c0.621-3.952-0.359-7.026-1.973-9.56
		c4.323-1.607,14.005-5.078,20.483-7.398c1.626-0.591,2.467-2.369,1.894-3.988c-0.59-1.626-2.368-2.473-3.988-1.895
		c-7.897,2.82-13.073,4.677-16.508,5.938l7.039-8.914c1.06-1.353,0.828-3.307-0.523-4.379c-1.34-1.062-3.312-0.837-4.384,0.518
		l-6.966,8.83l2.436-15.653c0.256-1.702-0.914-3.291-2.606-3.559c-1.692-0.262-3.288,0.904-3.556,2.6l-3.002,19.4
		c-1.596-0.718-3.325-1.242-5.328-1.242c-7.069,0-15.448,5.7-27.158,18.493c-10.013,10.918-18.188,22.377-23.02,32.26
		c-5.444,11.131-6.031,19.102-1.696,23.072c1.645,1.51,3.821,2.266,6.476,2.266c7.401,0,18.968-6.492,31.271-16.989l12.337,11.289
		c2.095,1.925,4.676,2.905,7.13,2.905c2.211,0,4.305-0.805,5.815-2.43l1.863-2.047c4.969,4.567,24.484,22.433,24.484,22.433
		L173.123,188.971z M144.705,156.248c0.907,0.84,1.492,1.941,1.535,2.922c0.012,0.335-0.024,0.779-0.335,1.115l-1.863,2.045
		l-14.121-12.933c0.871-0.907,1.729-1.748,2.594-2.698c0.28-0.304,0.523-0.584,0.792-0.889L144.705,156.248z M83.765,171.543
		c-1.185-1.09-1.867-5.613,3.087-15.746c1.264-2.582,2.823-5.31,4.552-8.086l7.712,7.062c0.6,0.561,1.352,0.828,2.107,0.828
		c0.843,0,1.684-0.353,2.302-1.01c1.166-1.273,1.071-3.252-0.195-4.409l-8.442-7.733c1.705-2.472,3.55-4.932,5.532-7.429
		l9.134,8.379c0.603,0.548,1.357,0.815,2.113,0.815c0.84,0,1.68-0.341,2.295-1.01c1.163-1.268,1.078-3.24-0.188-4.409l-9.201-8.439
		c-0.075-0.062-0.148-0.073-0.219-0.134c1.474-1.729,2.926-3.495,4.5-5.207c0.584-0.65,1.133-1.187,1.698-1.783
		c0.092,0.109,0.128,0.23,0.244,0.341l9.213,8.427c0.597,0.549,1.352,0.816,2.106,0.816c0.841,0,1.681-0.341,2.302-1.011
		c1.169-1.278,1.072-3.245-0.194-4.409l-9.213-8.427c-0.049-0.049-0.128-0.062-0.165-0.098c7.137-6.899,12.599-10.327,16.587-10.327
		c2.491,0,4.458,1.346,6.832,3.52c3.032,2.771,4.579,4.969,4.02,8.574c-0.792,5.017-5.493,12.166-14.358,21.848
		c-17.866,19.484-34.602,29.678-41.903,29.678C84.974,172.164,84.212,171.964,83.765,171.543z M133.83,168.104l-11.868-10.869
		c1.2-1.108,2.399-2.192,3.605-3.38l14.255,13.062l-1.863,2.046C137.258,169.705,135.364,169.51,133.83,168.104z"/>
</g>
<g>
</g>
<g>
</g>
<g>
</g>
<g>
</g>
<g>
</g>
<g>
</g>
<g>
</g>
<g>
</g>
<g>
</g>
<g>
</g>
<g>
</g>
<g>
</g>
<g>
</g>
<g>
</g>
<g>
</g>
</svg>
