<?xml version="1.0" encoding="iso-8859-1"?>
<!-- Generator: Adobe Illustrator 16.0.0, SVG Export Plug-In . SVG Version: 6.00 Build 0)  -->
<!DOCTYPE svg PUBLIC "-//W3C//DTD SVG 1.1//EN" "http://www.w3.org/Graphics/SVG/1.1/DTD/svg11.dtd">
<svg version="1.1" id="Capa_1" xmlns="http://www.w3.org/2000/svg" xmlns:xlink="http://www.w3.org/1999/xlink" x="0px" y="0px"
	 width="181.189px" height="181.189px" viewBox="0 0 181.189 181.189" style="enable-background:new 0 0 181.189 181.189;"
	 xml:space="preserve">
<g>
	<path d="M111.88,62.986l39.393-44.33c4.109-4.629,3.693-11.713-0.938-15.825c-4.627-4.112-11.705-3.699-15.824,0.936L90.595,53.196
		L46.677,3.768C42.564-0.862,35.48-1.275,30.852,2.832c-4.627,4.112-5.042,11.196-0.936,15.825l39.393,44.33
		c-23.187,8.667-39.767,30.979-39.767,57.151c0,33.664,27.389,61.052,61.053,61.052c33.663,0,61.053-27.388,61.053-61.052
		C151.647,93.97,135.075,71.653,111.88,62.986z M90.595,158.77c-21.302,0-38.641-17.333-38.641-38.638
		c0-21.319,17.339-38.641,38.641-38.641c21.3,0,38.641,17.332,38.641,38.641C129.235,141.437,111.895,158.77,90.595,158.77z
		 M114.033,114.869l-11.73,11.426l2.769,16.119l-14.477-7.601l-14.478,7.601l2.769-16.119l-11.725-11.426l16.195-2.348l7.239-14.671
		l7.236,14.671L114.033,114.869z"/>
</g>
<g>
</g>
<g>
</g>
<g>
</g>
<g>
</g>
<g>
</g>
<g>
</g>
<g>
</g>
<g>
</g>
<g>
</g>
<g>
</g>
<g>
</g>
<g>
</g>
<g>
</g>
<g>
</g>
<g>
</g>
</svg>
