<?xml version="1.0" encoding="iso-8859-1"?>
<!-- Generator: Adobe Illustrator 16.0.0, SVG Export Plug-In . SVG Version: 6.00 Build 0)  -->
<!DOCTYPE svg PUBLIC "-//W3C//DTD SVG 1.1//EN" "http://www.w3.org/Graphics/SVG/1.1/DTD/svg11.dtd">
<svg version="1.1" id="Capa_1" xmlns="http://www.w3.org/2000/svg" xmlns:xlink="http://www.w3.org/1999/xlink" x="0px" y="0px"
	 width="242.714px" height="242.714px" viewBox="0 0 242.714 242.714" style="enable-background:new 0 0 242.714 242.714;"
	 xml:space="preserve">
<g>
	<path d="M215.656,25.139c0-3.167-2.393-5.678-5.456-6.08V6.235c0-3.443-2.788-6.235-6.234-6.235c-3.453,0-6.235,2.792-6.235,6.235
		v12.662h-2.339V6.235c0-3.443-2.789-6.235-6.235-6.235c-3.452,0-6.235,2.792-6.235,6.235v12.662h-7.757
		c-2.284-2.53-5.56-4.152-9.226-4.152c-3.678,0-6.941,1.623-9.225,4.152H86c-2.283-2.53-5.556-4.152-9.228-4.152
		s-6.941,1.623-9.222,4.152h-7.757V6.235C59.792,2.792,57.007,0,53.557,0c-3.446,0-6.235,2.792-6.235,6.235v12.662h-2.338V6.235
		C44.983,2.792,42.198,0,38.748,0c-3.446,0-6.235,2.792-6.235,6.235v12.824c-3.054,0.402-5.456,2.914-5.456,6.08
		c0,3.169,2.402,5.681,5.456,6.08v12.827c0,3.44,2.789,6.235,6.235,6.235c3.45,0,6.235-2.795,6.235-6.235V31.38h2.338v12.666
		c0,3.44,2.789,6.235,6.235,6.235c3.45,0,6.235-2.795,6.235-6.235V31.38h4.521v35.619c0,19.735,12.084,36.48,28.701,42.161v121.083
		c0,6.881,5.587,12.471,12.471,12.471s12.471-5.59,12.471-12.471v-51.191h6.847v51.191c0,6.881,5.586,12.471,12.467,12.471
		c6.887,0,12.471-5.59,12.471-12.471V109.16c16.617-5.688,28.704-22.436,28.704-42.161V31.38h4.519v12.666
		c0,3.44,2.789,6.235,6.235,6.235s6.235-2.795,6.235-6.235V31.38h2.338v12.666c0,3.44,2.789,6.235,6.235,6.235
		s6.235-2.795,6.235-6.235V31.219C213.264,30.814,215.656,28.309,215.656,25.139z M153.456,66.993
		c0,10.641-7.259,19.302-16.197,19.302h-1.065c7.271-4.82,12.087-13.055,12.087-22.435c0-14.864-12.069-26.917-26.927-26.917
		S94.431,48.996,94.431,63.86c0,9.38,4.807,17.615,12.084,22.435h-1.072c-8.936,0-16.2-8.662-16.2-19.302V31.374h64.225
		L153.456,66.993L153.456,66.993z"/>
</g>
<g>
</g>
<g>
</g>
<g>
</g>
<g>
</g>
<g>
</g>
<g>
</g>
<g>
</g>
<g>
</g>
<g>
</g>
<g>
</g>
<g>
</g>
<g>
</g>
<g>
</g>
<g>
</g>
<g>
</g>
</svg>
